<?xml version="1.0" encoding="utf-8"?>
<!-- Generator: Adobe Illustrator 28.4.1, SVG Export Plug-In . SVG Version: 6.00 Build 0)  -->
<svg version="1.1" id="Слой_1" xmlns="http://www.w3.org/2000/svg" xmlns:xlink="http://www.w3.org/1999/xlink" x="0px" y="0px"
	 viewBox="0 0 57 53" style="enable-background:new 0 0 57 53;" xml:space="preserve">
<style type="text/css">
	.st0{fill:#A4EB04;}
</style>
<path class="st0" d="M50.6,0.5c1-0.7,2.3-0.7,3.2,0.2c0.9,0.9,0.9,2.5,0,3.4l-7.3,7.3c3.2,1.6,6.1,3.6,8.8,5.9
	c1,0.9,1.1,2.4,0.2,3.4c-0.9,1-2.4,1.1-3.4,0.2c-2.8-2.4-5.9-4.4-9.2-5.9l-5.6,5.6c3.4,1.1,6.6,2.9,9.3,5.2c1,0.9,1.2,2.4,0.3,3.4
	c-0.9,1-2.4,1.2-3.4,0.3c-2.9-2.5-6.4-4.2-10.2-5l-6.7,6.7c3.9-0.3,7.9,0.7,11.3,3.1c1.1,0.8,1.3,2.3,0.6,3.4
	c-0.8,1.1-2.3,1.3-3.4,0.6c-4.2-3-9.8-3-14,0c-0.6,0.4-1.2,0.5-1.9,0.4L5.8,52.1l-0.2,0.2c-1,0.7-2.3,0.7-3.2-0.2
	c-0.9-0.9-0.9-2.5,0-3.4l28.2-28.2c0.1-0.2,0.3-0.3,0.4-0.4l9.6-9.6c0,0,0.1-0.1,0.1-0.1l9.7-9.7L50.6,0.5z"/>
<path class="st0" d="M15.6,22c1.2-0.6,2.7-0.1,3.2,1.1c0.6,1.2,0.1,2.7-1.1,3.2c-1.8,0.9-3.5,2-5,3.3c-1,0.9-2.6,0.7-3.4-0.3
	c-0.9-1-0.7-2.6,0.3-3.4C11.4,24.3,13.4,23,15.6,22z"/>
<path class="st0" d="M0.8,17.3C9.2,9.9,20.2,6.3,31.4,7.2c1.3,0.1,2.3,1.3,2.2,2.6c-0.1,1.3-1.3,2.3-2.6,2.2c-9.8-0.8-19.6,2.4-27,9
	c-1,0.9-2.5,0.8-3.4-0.2C-0.3,19.8-0.2,18.2,0.8,17.3z"/>
</svg>
